<svg width="16" height="16" viewBox="0 0 16 16" fill="none" xmlns="http://www.w3.org/2000/svg">
<path d="M0 2.15094C0 1.63786 0.180185 1.21458 0.540541 0.8811C0.900896 0.547601 1.36937 0.380859 1.94595 0.380859C2.51223 0.380859 2.97039 0.545031 3.32046 0.873404C3.68082 1.21203 3.861 1.65326 3.861 2.19712C3.861 2.68966 3.68598 3.1001 3.33591 3.42848C2.97555 3.7671 2.50193 3.93641 1.91506 3.93641H1.89961C1.33333 3.93641 0.875166 3.7671 0.525097 3.42848C0.175027 3.08985 0 2.664 0 2.15094ZM0.200772 15.6189V5.33709H3.62934V15.6189H0.200772ZM5.52896 15.6189H8.95753V9.87773C8.95753 9.51857 8.99872 9.24152 9.08108 9.04656C9.22522 8.69767 9.44402 8.40265 9.73745 8.16152C10.0309 7.92037 10.399 7.79981 10.8417 7.79981C11.9949 7.79981 12.5714 8.57453 12.5714 10.124V15.6189H16V9.72381C16 8.20513 15.6396 7.05329 14.9189 6.2683C14.1982 5.48331 13.2458 5.09081 12.0618 5.09081C10.7336 5.09081 9.69884 5.66032 8.95753 6.79933V6.83011H8.94209L8.95753 6.79933V5.33709H5.52896C5.54954 5.66544 5.55985 6.68644 5.55985 8.4001C5.55985 10.1137 5.54954 12.52 5.52896 15.6189Z" fill="#807F86"/>
</svg>
