<svg width="25" height="24" viewBox="0 0 25 24" fill="none" xmlns="http://www.w3.org/2000/svg">
<path d="M6.48066 5.44937H22.7693L20.4504 15.3048C20.1492 16.5844 19.0075 17.4887 17.6929 17.4887H11.8481C10.5627 17.4887 9.4385 16.6233 9.10959 15.3808L6.48066 5.44937ZM6.48066 5.44937L5.41836 1.2002H2.23145" stroke="white" stroke-width="1.5" stroke-linecap="round" stroke-linejoin="round"/>
<path d="M10.4124 21.3837C10.4124 21.7946 10.0793 22.1277 9.66836 22.1277C9.25742 22.1277 8.9243 21.7946 8.9243 21.3837C8.9243 20.9728 9.25742 20.6396 9.66836 20.6396C10.0793 20.6396 10.4124 20.9728 10.4124 21.3837Z" fill="white" stroke="white" stroke-width="1.3447"/>
<path d="M19.5844 22.8001C20.3666 22.8001 21.0008 22.1659 21.0008 21.3837C21.0008 20.6014 20.3666 19.9673 19.5844 19.9673C18.8021 19.9673 18.168 20.6014 18.168 21.3837C18.168 22.1659 18.8021 22.8001 19.5844 22.8001Z" fill="white"/>
</svg>
