<svg width="24" height="23" viewBox="0 0 24 23" fill="none" xmlns="http://www.w3.org/2000/svg">
<path d="M5.98066 5.44937H22.2693L19.9504 15.3048C19.6492 16.5844 18.5075 17.4887 17.1929 17.4887H11.3481C10.0627 17.4887 8.9385 16.6233 8.60959 15.3808L5.98066 5.44937ZM5.98066 5.44937L4.91836 1.2002H1.73145" stroke="#3A3845" stroke-width="1.5" stroke-linecap="round" stroke-linejoin="round"/>
<path d="M9.16836 22.8001C9.95062 22.8001 10.5848 22.1659 10.5848 21.3837C10.5848 20.6014 9.95062 19.9673 9.16836 19.9673C8.3861 19.9673 7.75195 20.6014 7.75195 21.3837C7.75195 22.1659 8.3861 22.8001 9.16836 22.8001Z" fill="#3A3845"/>
<path d="M19.0844 22.8001C19.8666 22.8001 20.5008 22.1659 20.5008 21.3837C20.5008 20.6014 19.8666 19.9673 19.0844 19.9673C18.3021 19.9673 17.668 20.6014 17.668 21.3837C17.668 22.1659 18.3021 22.8001 19.0844 22.8001Z" fill="#3A3845"/>
</svg>
