<svg width="16" height="14" viewBox="0 0 16 14" fill="none" xmlns="http://www.w3.org/2000/svg">
<path d="M10.6907 0.512159V0.509277H11.4409L11.7151 0.564026C11.8978 0.599569 12.0637 0.646148 12.2128 0.703778C12.3619 0.761408 12.5062 0.828648 12.6456 0.905483C12.7851 0.982318 12.9116 1.06061 13.0251 1.14032C13.1376 1.21909 13.2386 1.30265 13.3281 1.39101C13.4165 1.48034 13.5546 1.50339 13.7421 1.46017C13.9297 1.41695 14.1316 1.35691 14.3481 1.28008C14.5645 1.20324 14.7785 1.1168 14.9901 1.02074C15.2017 0.924688 15.3306 0.863701 15.3768 0.837768C15.422 0.810883 15.446 0.796476 15.4489 0.794545L15.4518 0.790223L15.4662 0.783019L15.4806 0.775816L15.495 0.768612L15.5095 0.761408L15.5124 0.757086L15.5167 0.754204L15.521 0.751323L15.5239 0.747001L15.5383 0.742678L15.5528 0.739797L15.5499 0.761408L15.5455 0.783019L15.5383 0.804631L15.5311 0.826242L15.5239 0.840649L15.5167 0.855057L15.5095 0.876668C15.5047 0.891075 15.4999 0.910281 15.495 0.934298C15.4902 0.958315 15.4445 1.05436 15.358 1.22245C15.2714 1.39054 15.1632 1.56102 15.0334 1.73391C14.9035 1.9068 14.7871 2.03742 14.6842 2.1258C14.5804 2.21512 14.5116 2.27755 14.4779 2.31309C14.4442 2.34959 14.4034 2.3832 14.3553 2.41395L14.2831 2.46149L14.2687 2.46869L14.2543 2.4759L14.2514 2.48022L14.2471 2.4831L14.2427 2.48598L14.2399 2.49031L14.2254 2.49751L14.211 2.50471L14.2081 2.50903L14.2038 2.51192L14.1995 2.5148L14.1966 2.51912L14.1937 2.52344L14.1894 2.52632L14.185 2.52921L14.1821 2.53353H14.2543L14.6583 2.44708C14.9276 2.38945 15.1849 2.31982 15.4301 2.23817L15.8197 2.10851L15.8629 2.0941L15.8846 2.0869L15.899 2.07969L15.9134 2.07249L15.9279 2.06528L15.9423 2.05808L15.9711 2.05376L16 2.05088V2.07969L15.9928 2.08257L15.9856 2.0869L15.9827 2.09122L15.9784 2.0941L15.974 2.09698L15.9711 2.1013L15.9683 2.10563L15.9639 2.10851L15.9596 2.11139L15.9567 2.11571L15.9538 2.12003L15.9495 2.12291L15.9423 2.13732L15.9351 2.15173L15.9307 2.15461C15.9288 2.15749 15.8678 2.23913 15.7475 2.39954C15.6273 2.5609 15.5624 2.64253 15.5528 2.64446C15.5431 2.64735 15.5297 2.66175 15.5124 2.68769C15.496 2.71457 15.394 2.82168 15.2065 3.00897C15.0189 3.19627 14.8352 3.36291 14.6554 3.50891C14.4746 3.65587 14.3832 3.83644 14.3813 4.05063C14.3784 4.26387 14.3673 4.50496 14.3481 4.77389C14.3288 5.04283 14.2928 5.33338 14.2399 5.64554C14.187 5.95771 14.1052 6.31069 13.9946 6.70449C13.884 7.09829 13.7493 7.48249 13.5906 7.85709C13.4319 8.23168 13.266 8.56785 13.0929 8.86561C12.9197 9.16337 12.761 9.4155 12.6168 9.62201C12.4725 9.82851 12.3258 10.023 12.1767 10.2055C12.0277 10.388 11.8391 10.5936 11.6112 10.8221C11.3823 11.0498 11.2572 11.1747 11.2361 11.1967C11.214 11.2179 11.1197 11.2966 10.9533 11.433C10.7879 11.5704 10.6099 11.7077 10.4195 11.8451C10.23 11.9815 10.0559 12.0953 9.8972 12.1865C9.7385 12.2778 9.54711 12.382 9.32299 12.4992C9.09986 12.6173 8.85843 12.7268 8.59874 12.8277C8.33904 12.9285 8.06492 13.0222 7.77638 13.1086C7.48783 13.1951 7.2089 13.2623 6.93959 13.3103C6.67028 13.3583 6.3649 13.3992 6.02344 13.4328L5.51127 13.4832V13.4904H4.57349V13.4832L4.45086 13.476C4.36911 13.4712 4.30178 13.4664 4.24887 13.4616C4.19598 13.4568 3.99639 13.4304 3.65014 13.3824C3.30388 13.3343 3.03217 13.2863 2.83499 13.2383C2.63782 13.1903 2.34445 13.099 1.95491 12.9645C1.56537 12.8301 1.2321 12.6942 0.955095 12.5568C0.679055 12.4204 0.505926 12.334 0.435708 12.2975C0.366456 12.2619 0.288548 12.2178 0.201984 12.1649L0.0721371 12.0857L0.069266 12.0814L0.0649234 12.0785L0.0605951 12.0756L0.0577096 12.0713L0.0432822 12.0641L0.0288548 12.0569L0.0259838 12.0525L0.0216411 12.0497L0.0173129 12.0468L0.0144274 12.0425L0.0115564 12.0381L0.00721371 12.0353H0V12.0064L0.0144274 12.0093L0.0288548 12.0136L0.0937782 12.0208C0.13706 12.0256 0.254889 12.0329 0.44725 12.0425C0.639625 12.0521 0.844004 12.0521 1.06041 12.0425C1.27683 12.0329 1.49806 12.0112 1.72408 11.9776C1.95011 11.944 2.21702 11.8864 2.5248 11.8047C2.83259 11.7231 3.11537 11.6261 3.37314 11.5137C3.62995 11.4004 3.81269 11.3158 3.92139 11.2601C4.0291 11.2054 4.19357 11.1036 4.41479 10.9547L4.74662 10.7314L4.7495 10.7271L4.75383 10.7242L4.75817 10.7213L4.76105 10.717L4.76393 10.7127L4.76826 10.7098L4.7726 10.7069L4.77547 10.7026L4.7899 10.6982L4.80433 10.6954L4.80721 10.681L4.81154 10.6665L4.81588 10.6637L4.81876 10.6593L4.70334 10.6521C4.6264 10.6473 4.55185 10.6425 4.47971 10.6377C4.40757 10.6329 4.29456 10.6113 4.14067 10.5729C3.98678 10.5345 3.82087 10.4768 3.64292 10.4C3.46499 10.3232 3.29186 10.2319 3.12353 10.1263C2.95522 10.0206 2.83354 9.93272 2.75852 9.86261C2.68447 9.79344 2.58828 9.69548 2.46997 9.5687C2.35263 9.44096 2.25068 9.30984 2.16411 9.17537C2.07755 9.04091 1.99483 8.88577 1.91597 8.71001L1.79621 8.4478L1.789 8.42618L1.78179 8.40457L1.77746 8.39017L1.77457 8.37576L1.79621 8.37864L1.81785 8.38296L1.97656 8.40457C2.08237 8.41898 2.24828 8.42378 2.4743 8.41898C2.70034 8.41418 2.85663 8.40457 2.94319 8.39017C3.02976 8.37576 3.08266 8.36615 3.10189 8.36135L3.13075 8.35415L3.16682 8.34694L3.20289 8.33974L3.20577 8.33542L3.2101 8.33254L3.21444 8.32965L3.21731 8.32533L3.18846 8.31813L3.1596 8.31093L3.13075 8.30372L3.10189 8.29652L3.07304 8.28931C3.05381 8.28452 3.02015 8.27491 2.97205 8.2605C2.92396 8.24609 2.79411 8.19326 2.58251 8.10202C2.37091 8.01077 2.20259 7.92192 2.07755 7.83548C1.9522 7.74878 1.83267 7.65397 1.71975 7.55165C1.60721 7.44792 1.48363 7.3144 1.34896 7.15112C1.21431 6.98784 1.09409 6.79814 0.988278 6.58203C0.882482 6.36592 0.803131 6.15941 0.750225 5.96251C0.697533 5.76676 0.662769 5.56663 0.646362 5.3646L0.620379 5.06204L0.634806 5.06492L0.649234 5.06924L0.663661 5.07645L0.678088 5.08365L0.692516 5.09085L0.706943 5.09806L0.930568 5.19891C1.07966 5.26615 1.26481 5.32378 1.48602 5.3718C1.70725 5.41982 1.8395 5.44624 1.88278 5.45104L1.9477 5.45824H2.07755L2.07468 5.45392L2.07033 5.45104L2.06601 5.44816L2.06312 5.44384L2.06025 5.43952L2.05591 5.43663L2.05158 5.43375L2.04869 5.42943L2.03427 5.42223L2.01984 5.41502L2.01697 5.4107L2.01262 5.40782L2.0083 5.40494L2.00541 5.40061L1.99098 5.39341L1.97656 5.38621L1.97368 5.38189C1.9708 5.37995 1.92944 5.34922 1.84959 5.28968C1.77072 5.22917 1.68801 5.15089 1.60144 5.05484C1.51488 4.95878 1.42831 4.85793 1.34175 4.75228C1.25503 4.64639 1.17778 4.53309 1.11091 4.4137C1.04359 4.29365 0.972408 4.14091 0.897385 3.95555C0.823329 3.77113 0.767062 3.58527 0.728584 3.39798C0.690121 3.21068 0.66848 3.02579 0.663661 2.84329C0.658857 2.66079 0.663661 2.50471 0.678088 2.37505C0.692516 2.24538 0.721371 2.0989 0.764653 1.93562C0.807935 1.77234 0.870463 1.59945 0.952209 1.41695L1.07484 1.14321L1.08206 1.1216L1.08927 1.09998L1.09361 1.0971L1.09648 1.09278L1.09937 1.08846L1.1037 1.08558L1.10804 1.08846L1.11091 1.09278L1.1138 1.0971L1.11812 1.09998L1.12247 1.10287L1.12534 1.10719L1.12822 1.11151L1.13255 1.11439L1.13977 1.1288L1.14698 1.14321L1.15132 1.14609L1.15419 1.15041L1.34896 1.36652C1.47881 1.5106 1.63271 1.67149 1.81064 1.84917C1.98859 2.02686 2.08717 2.11907 2.1064 2.1258C2.12565 2.13348 2.14968 2.15556 2.17854 2.19207C2.20739 2.22761 2.30358 2.31262 2.46709 2.44708C2.63061 2.58155 2.84461 2.73764 3.10911 2.91533C3.37362 3.09301 3.66697 3.26831 3.98918 3.4412C4.3114 3.61409 4.65766 3.77016 5.02795 3.90944C5.39826 4.04872 5.65796 4.13996 5.80703 4.18318C5.95613 4.22641 6.211 4.28163 6.57169 4.34887C6.93237 4.41611 7.2041 4.45933 7.38684 4.47854C7.56959 4.49774 7.69463 4.50879 7.76195 4.51167L7.86294 4.51456L7.86007 4.49294L7.85573 4.47133L7.82687 4.29124C7.80764 4.17118 7.79802 4.00309 7.79802 3.78698C7.79802 3.57087 7.81485 3.37157 7.84851 3.18907C7.88219 3.00657 7.93268 2.82168 8 2.63438C8.06733 2.44708 8.13322 2.29676 8.19766 2.18343C8.26307 2.07105 8.34867 1.94282 8.45446 1.79875C8.56027 1.65467 8.69733 1.5058 8.86564 1.35211C9.03397 1.19843 9.22633 1.06156 9.44274 0.941502C9.65915 0.821444 9.85874 0.730187 10.0415 0.66776C10.2242 0.605332 10.3781 0.564501 10.5032 0.545296C10.6282 0.526091 10.6907 0.51504 10.6907 0.512159Z" fill="#807F86"/>
</svg>
