<svg width="18" height="14" viewBox="0 0 18 14" fill="none" xmlns="http://www.w3.org/2000/svg">
<path d="M9.39011 13.2044L5.77928 13.1369C4.61017 13.1134 3.43815 13.1603 2.29196 12.9167C0.548348 12.5527 0.424824 10.7679 0.29557 9.27077C0.11747 7.16602 0.186418 5.02308 0.522515 2.9359C0.712253 1.76477 1.45895 1.06595 2.61369 0.989909C6.51178 0.713931 10.4358 0.746638 14.3252 0.875391C14.736 0.887194 15.1496 0.951706 15.5547 1.02514C17.554 1.38329 17.6028 3.40586 17.7324 5.10849C17.8617 6.82869 17.8071 8.55772 17.56 10.2662C17.3618 11.6808 16.9826 12.867 15.3823 12.9816C13.3772 13.1313 11.4181 13.2519 9.40731 13.2135C9.40739 13.2044 9.39584 13.2044 9.39011 13.2044ZM7.26729 9.62306C8.77831 8.73648 10.2605 7.86466 11.7629 6.98402C10.249 6.09743 8.76967 5.22562 7.26729 4.34498V9.62306Z" fill="#807F86"/>
</svg>
